# xmcd
#
# Track frame offsets:
#	150
#	17202
#	33490
#	51487
#	67857
#	88967
#	106230
#	124945
#	146152
#	163377
#
# Disc length: 2513 seconds
#
# Revision: 1
# Processed by: cddbd v1.5.1PL0 Copyright (c) Steve Scherf et al.
# Submitted via: CDex 1.50Beta5
#
DISCID=9409cf0a
DTITLE=織田裕二 - Shake!!
DYEAR=1998
DGENRE=Pop
TTITLE0=イトシイベイベー
TTITLE1=out
TTITLE2=Freedom
TTITLE3=Shake it UP
TTITLE4=Love Somebody
TTITLE5=口笛
TTITLE6=naive
TTITLE7=FLY HIGH
TTITLE8=day,a
TTITLE9=Over and Over Again
EXTD=
EXTT0=
EXTT1=
EXTT2=
EXTT3=
EXTT4=
EXTT5=
EXTT6=
EXTT7=
EXTT8=
EXTT9=
PLAYORDER=
